<svg xmlns="http://www.w3.org/2000/svg" xmlns:xlink="http://www.w3.org/1999/xlink" version="1.1" id="Icon" x="0px" y="0px" width="100px" height="100px" viewBox="0 0 100 100" enable-background="new 0 0 100 100" xml:space="preserve">
<g>
	<g>
		<path d="M20.423,49.137l6.569-0.057l-13.25-13.024L0.719,49.306l6.568-0.056c0.207,24.128,19.067,43.82,42.744,45.475    c5.935-12.685,5.312-11.185,6.106-13.15c-0.857,0.076-1.721,0.115-2.59,0.123C35.433,81.854,20.579,67.252,20.423,49.137z     M30.695,24.998c13.157-12.451,33.979-11.875,46.428,1.283l-4.77,4.515l18.571,0.513l0.513-18.572l-4.771,4.515    C69.244-1.163,40.08-1.969,21.666,15.455c-3.991,3.775-7.217,8.146-9.593,12.921c0.862,0.679,0.862,0.679,10.175,9.644    C23.955,33.121,26.819,28.665,30.695,24.998z M97.176,35.192c-3.396,0.16,3.979,0.058-14.027,0.03    c0.094,0.205,0.186,0.41,0.274,0.618c7.181,16.633-0.504,35.991-17.135,43.171l-2.603-6.028L56.832,90.25L74.1,97.104    l-2.604-6.028C93.266,81.674,104.088,57.344,97.176,35.192z"/>
	</g>
</g>
</svg>