<svg xmlns="http://www.w3.org/2000/svg" xmlns:xlink="http://www.w3.org/1999/xlink" version="1.1" x="0px" y="0px" width="100px" height="100px" viewBox="0 0 100 100" enable-background="new 0 0 100 100" xml:space="preserve">
<g id="Captions">
	<rect x="-192" width="185" height="99"/>
	<rect y="-36" width="100" height="30"/>
	<text transform="matrix(1 0 0 1 66 -19.5)" fill="#000000" font-family="'Helvetica'" font-size="2.4">http://thenounproject.com</text>
	<text transform="matrix(1 0 0 1 7.166 -24.5)"><tspan x="0" y="0" fill="#000000" font-family="'Helvetica-Bold'" font-size="6.1578">The Noun Project</tspan><tspan x="1.12" y="4.8" fill="#000000" font-family="'Helvetica-Bold'" font-size="4">Icon Template</tspan></text>
	<text transform="matrix(1 0 0 1 -178.5 10.5)" fill="#000000" font-family="'Helvetica-Bold'" font-size="6.1578">Reminders</text>
	<line fill="#000000" stroke="#FFFFFF" stroke-miterlimit="10" x1="8" y1="-14.5" x2="18" y2="-14.5"/>
	<line fill="#000000" stroke="#FFFFFF" stroke-miterlimit="10" x1="-179" y1="16.5" x2="-162" y2="16.5"/>
	<g>
		<g>
			<g>
				<rect x="-170.802" y="31.318" fill="#000000" width="8.721" height="8.642"/>
				<path fill="#000000" d="M-164.455,42.312h4.747v-4.703h-4.747V42.312z M-159.266,42.749h-5.63V37.17h5.63V42.749      L-159.266,42.749z M-166.221,44.062h8.279v-8.203h-8.279V44.062L-166.221,44.062z M-157.5,44.5h-9.163v-9.079h9.163V44.5      L-157.5,44.5z"/>
				<polygon fill="#000000" points="-166.149,44.133 -166.292,43.991 -158.013,35.787 -157.871,35.929     "/>
			</g>
		</g>
	</g>
	<rect x="-179" y="58" fill="none" width="35" height="32.5"/>
	<text transform="matrix(1 0 0 1 -179 60.1572)"><tspan x="0" y="0" fill="#000000" font-family="'Helvetica-Bold'" font-size="3">Strokes</tspan><tspan x="0" y="5" fill="#000000" font-family="'Helvetica'" font-size="2.4">Try to keep strokes at 4px</tspan><tspan x="0" y="10" fill="#000000" font-family="'Helvetica'" font-size="2.4">Minimum stroke weight is 2px</tspan><tspan x="0" y="14.5" fill="#000000" font-family="'Helvetica'" font-size="2.4">For thicker strokes use even </tspan><tspan x="0" y="17.5" fill="#000000" font-family="'Helvetica'" font-size="2.4">numbers: 6px, 8px etc.</tspan><tspan x="0" y="22" fill="#000000" font-family="'Helvetica-Bold'" font-size="2.4">Remember to expand strokes </tspan><tspan x="0" y="25" fill="#000000" font-family="'Helvetica-Bold'" font-size="2.4">before saving as an SVG </tspan></text>
	<rect x="-136.5" y="58" fill="none" width="35" height="32.5"/>
	<text transform="matrix(1 0 0 1 -136.5 60.1572)"><tspan x="0" y="0" fill="#000000" font-family="'Helvetica-Bold'" font-size="3">Size</tspan><tspan x="0" y="5" fill="#000000" font-family="'Helvetica'" font-size="2.4">Cannot be wider or taller than </tspan><tspan x="0" y="8.5" fill="#000000" font-family="'Helvetica'" font-size="2.4">100px (artboard size)</tspan><tspan x="0" y="13.5" fill="#000000" font-family="'Helvetica'" font-size="2.4">Scale your icon to fill as much of </tspan><tspan x="0" y="16.5" fill="#000000" font-family="'Helvetica'" font-size="2.4">the artboard as possible</tspan></text>
	<rect x="-94" y="58" fill="none" width="35" height="32.5"/>
	<text transform="matrix(1 0 0 1 -94 60.1572)"><tspan x="0" y="0" fill="#000000" font-family="'Helvetica-Bold'" font-size="3">Ungroup</tspan><tspan x="0" y="5" fill="#000000" font-family="'Helvetica'" font-size="2.4">If your design has more than one </tspan><tspan x="0" y="8" fill="#000000" font-family="'Helvetica'" font-size="2.4">shape, make sure to ungroup</tspan></text>
	<rect x="-50" y="58" fill="none" width="35" height="32.5"/>
	<text transform="matrix(1 0 0 1 -50 60.1572)"><tspan x="0" y="0" fill="#000000" font-family="'Helvetica-Bold'" font-size="3">Save as</tspan><tspan x="0" y="5" fill="#000000" font-family="'Helvetica'" font-size="2.4">Save as .SVG and make sure </tspan><tspan x="0" y="8" fill="#000000" font-family="'Helvetica'" font-size="2.4">&#8220;Use Artboards&#8221; is checked</tspan></text>
	<text transform="matrix(1.0074 0 0 1 -125.542 30.5933)" fill="#000000" font-family="'Helvetica'" font-size="2.5731">100px</text>
	<text transform="matrix(1.0074 0 0 1 -41 39)" fill="#000000" font-family="'Helvetica-Bold'" font-size="5.1462">.SVG</text>
	<rect x="-126.514" y="34.815" fill="#000000" width="10.261" height="10.185"/>
	<rect x="-126.477" y="31.766" fill="#000000" width="0.522" height="2.337"/>
	<rect x="-116.812" y="31.766" fill="#000000" width="0.523" height="2.337"/>
	<rect x="-127" y="32.337" fill="#000000" width="11.233" height="0.572"/>
	<g>
		<rect x="-83.805" y="33.844" fill="#000000" width="10.305" height="10.156"/>
		<rect x="-76.809" y="28.707" fill="#000000" width="3.308" height="3.261"/>
	</g>
	<rect x="-178.5" y="22.5" fill="#000000" stroke="#FFFFFF" stroke-miterlimit="10" width="30" height="30"/>
	<rect x="-136.5" y="22.5" fill="#000000" stroke="#FFFFFF" stroke-miterlimit="10" width="30" height="30"/>
	<rect x="-93.5" y="22.5" fill="#000000" stroke="#FFFFFF" stroke-miterlimit="10" width="30" height="30"/>
	<rect x="-49.5" y="22.5" fill="#000000" stroke="#FFFFFF" stroke-miterlimit="10" width="30" height="30"/>
</g>
<g id="Your_Icon">
	<path d="M13.625,67.091c0,0-0.366,7.075-1.341,10.368c-0.977,3.292-1.465,5.977-1.465,7.074s0,1.098,0,1.098H8.016   c0,0-1.22-1.098-2.318,0c-1.098,1.097-1.342,1.462-3.293,1.585c-1.951,0.122-3.537-1.343-1.342-1.829   c2.195-0.488,2.683-1.22,3.171-1.465c0.488-0.243,0.122-1.341,1.098-1.341c0,0-0.487-1.585,0.488-1.707   c0,0-1.342-1.343-0.731-2.195c0.609-0.854,1.342-3.781,1.22-7.44s-0.61-15.246-0.488-16.953H4.966c0,0,0.365-7.929,0.365-9.148   L4.6,44.405c0,0,0.609-1.829,0.977-3.049c0.366-1.22,0.243-3.415,0.609-4.756c0.365-1.343,1.133-6.709,0.627-8.539   c-0.505-1.829-0.871-3.049,0.715-3.536c1.586-0.488,3.537-0.61,3.903-1.098c0.365-0.488,0.608-0.977,1.342-0.977   c0.731,0,2.072-1.708,2.805-1.829c0,0,0.366-1.708,0-3.293c0,0-1.341-1.464-0.487-2.195c0,0-0.367-2.195,1.219-3.659   s3.416-1.343,4.27,0c0.853,1.342,1.219,2.074,1.219,3.172s0.489,2.561-0.122,2.927c-0.609,0.366-1.098,3.293-0.609,3.537   c0.488,0.243,0.854,0.975,0.854,1.951c0,0,1.22-0.123,1.951-0.61s1.098-1.341,1.098-2.073c0-0.731-0.854-2.317-0.854-2.317   s-1.098-1.708-0.366-2.316c0,0-1.097-5.52,3.416-5.322c4.512,0.199,3.537,4.712,3.537,4.712s1.398,1.585,0.089,2.195   c0,0-1.309,1.586-0.699,3.049c0.61,1.464,0.688-0.122,1.259,0.976c0.571,1.098,2.156,1.22,3.376,0.854c0,0-0.244-1.586,0-3.416   c0.244-1.829-0.732-1.829-0.854-3.78c-0.122-1.951,0.976-5.854,5.366-5.854s3.904,2.438,4.391,3.536c0,0,4.024-2.318,5.244,1.707   c1.221,4.024,0.244,4.147,0,4.879c0,0-0.365,2.928-0.487,3.659c0,0,0.977-1.098,2.196-1.098c1.219,0,0.975-1.586,2.073-1.707   c1.098-0.123,1.706-0.731,0.975-2.317s-2.898-5.123,0.32-8.173c2.607-2.073,5.9-0.854,6.755,1.22   c0.853,2.074,0.609,3.537,0.609,3.537s2.439-2.805,4.269-0.853c1.83,1.951,1.952,5,1.952,5s2.317,0.976,2.073,3.415   c0,0,0.854-0.001,1.342-0.61c0.488-0.61,1.585-0.61,1.585-0.61s0-1.341-0.488-2.317c-0.488-0.975-1.341-2.806-1.463-4.024   c-0.122-1.22,0.366-4.757,3.049-4.391c0,0,1.098-1.829,3.294-0.243c2.194,1.585,2.194,3.414,1.463,5.122   c-0.731,1.707-1.342,1.951-0.976,2.928l-0.731,0.122c0,0-0.366,2.804,0.121,3.049c0.488,0.244,1.607-0.366,2.023,0.854   s0.416-0.731,0.781-1.342c0.366-0.609,0.366-1.708,0-2.317c-0.365-0.609-1.036-2.317,0.275-2.927c0,0-1.007-4.513,3.507-4.513   c3.049-0.244,3.171,1.951,3.171,1.951s3.66-0.976,5,1.098c1.342,2.073,1.465,5.123,1.342,5.854   c-0.122,0.731-0.608,2.805-1.463,2.805s-0.73,1.099,0.487,0.977c1.22-0.122,2.805,0,3.538,0.975   c0.731,0.977,0.731,2.074,0.731,2.074s1.463-0.122,1.463,1.22s0.122,2.683,0.977,3.781c0.854,1.098,0.487,2.195,0.609,3.658   c0.122,1.465,1.098,2.318,0,3.05s-2.317,0.365-2.317,0.365s-0.488,3.172,0.243,5.733c0.731,2.561,1.1,4.512,0.611,9.879   c-0.488,5.366-0.855,12.807-1.343,14.271c-0.487,1.463-0.244,5.365-0.366,6.707c-0.121,1.343-0.365,7.562-0.365,7.562h-0.977   c0,0,0.61,2.072,1.465,2.684c0.854,0.609,3.049,3.292,0,2.561c-3.05-0.731-3.171-2.927-3.171-2.927l0.121,2.195h-0.853v-2.439   c0,0-1.099-0.366-0.733-2.317c0,0-0.854-0.731-0.976-4.025c-0.121-3.293-0.365-8.171,0-10.976c0.366-2.806-0.122-5.855,0-7.196   c0.123-1.342-0.244-6.953-0.244-7.44c0-0.488-1.22-1.707-1.463,0.61c-0.243,2.316-0.366,5.487-0.854,8.902   c-0.487,3.416-1.219,7.807-1.585,12.197c-0.366,4.392-0.244,7.685-0.609,9.147c-0.366,1.464-0.732,3.171-0.732,3.537   c0,0.365,0.854,2.317,0.854,3.171h-5.122c0,0,0.488-1.22-0.609-1.585c-1.099-0.366-1.708-0.854-1.951,0.122l-3.659,0.243   c0,0,1.341,1.952,1.097,2.928h-4.391l-0.122-2.805c0,0-1.22-0.244-1.464-2.196c-0.243-1.951-2.683-12.439-4.268-26.101   c0,0-0.367,5.244,0.243,9.757c0.61,4.514,1.098,8.538,1.098,10.49c0,1.95-0.244,3.293-0.244,3.293s1.098,1.707,1.098,3.048   c0,0-3.902,0.488-4.634,0.366v-2.683c0,0-1.465-0.001-1.465-1.708s-1.463-5.488-1.463-5.488s-0.365,6.099-0.488,8.05   c-0.121,1.951-0.366,3.293-0.854,3.293c0,0,1.465,1.221,1.221,2.684h-5c0,0-0.122-1.951,0.365-2.805l-0.977-0.366   c0,0-0.853-2.074-0.608-3.172c0,0-2.255,0.732-3.872,0.366c0,0,1.252,1.098,0,1.463c-1.251,0.366-2.349,0-2.349,0   s-2.195,2.562-2.562-0.12l0.488-3.539l-0.731-0.243c0,0-0.61-2.806-1.586-0.488c0,0,0,0.366-2.928,1.343   c-2.927,0.975-2.073-0.611-2.073-0.611s-4.391,0.488-2.194-0.731c2.194-1.219,3.779-2.561,3.779-2.561l-1.463-0.367   c0,0,0.731-3.049,0.121-5.488c-0.608-2.438-1.585-6.708-2.194-8.05c-0.609-1.341-1.098-2.683-1.098-5.609s-1.099-5.244-1.099-5.244   s-0.243,5.122-0.975,8.659s-1.464,6.099-2.44,7.074c0,0,0.855,5.122,0.977,7.44c0.121,2.316,0.244,4.146,0.244,5.122   c0,0.976-0.123,1.829,0.731,2.439c0.854,0.609,1.585,1.707,0.243,1.951c-1.341,0.244-5,0-5,0l-0.243-1.951   c0,0-1.1-0.488-1.343-2.073c-0.243-1.586-0.243-2.074-0.243-2.074l-2.318,2.439c0,0-0.853,2.683,0.122,3.78   c0.977,1.099,0.854,2.44-0.488,2.318c-1.34-0.122-3.658,0.243-3.536-3.659l-1.586,0.609c0,0-7.684,0.977-5.61-1.22   c2.074-2.194,2.074-2.194,2.074-2.194S15.09,68.555,13.625,67.091z"/>
</g>
</svg>