<svg xmlns="http://www.w3.org/2000/svg" xmlns:xlink="http://www.w3.org/1999/xlink" version="1.1" x="0px" y="0px" width="100px" height="100px" viewBox="0 0 100 100" enable-background="new 0 0 100 100" xml:space="preserve">
<g id="Captions">
</g>
<g id="_x31__CD">
</g>
<g id="_x32__HDD">
</g>
<g id="_x33__HDD">
</g>
<g id="_x34__HDD">
</g>
<g id="_x35__HDD">
	<path d="M77.957,12.083c0,0,0.066-0.939-0.374-1.5c-0.344-0.438-1.25-0.542-1.25-0.542L19.918,10c0,0-1.561,0.017-2.168,0.875   c-0.708,1-0.708,1.833-0.708,1.833L17,88c0,0,0.125,1.126,0.958,2.085C18.718,90.96,19.781,91,19.781,91h56.344   c0,0,0.948-0.095,1.458-0.706C78,89.794,78,88.427,78,88.427L77.957,12.083z M74.125,12.125c0.69,0,1.25,0.56,1.25,1.25   s-0.56,1.25-1.25,1.25s-1.25-0.56-1.25-1.25S73.435,12.125,74.125,12.125z M21.125,12.125c0.69,0,1.25,0.56,1.25,1.25   s-0.56,1.25-1.25,1.25s-1.25-0.56-1.25-1.25S20.435,12.125,21.125,12.125z M21.125,88.625c-0.69,0-1.25-0.56-1.25-1.25   s0.56-1.25,1.25-1.25s1.25,0.56,1.25,1.25S21.815,88.625,21.125,88.625z M75.125,88.625c-0.69,0-1.25-0.56-1.25-1.25   s0.56-1.25,1.25-1.25s1.25,0.56,1.25,1.25S75.815,88.625,75.125,88.625z M76.667,82.417l-6.5,6.25L26,88.5L19,82V62.667l3.688-2.5   c0,0,2.104-1.412,2.021-3.667c-0.083-2.25-2.291-3.833-2.291-3.833l-3.417-3V38.438l2.583-2.771l0.084-11.333L20,24v-0.833   l1.583-0.104l0.043-4.02L27.375,12l26.001-0.166c0,0,22.124,2.666,23.249,26.166c0.706,14.759-9,23-9,23h9.208L76.667,82.417z    M19.875,56.375c0-0.69,0.56-1.25,1.25-1.25s1.25,0.56,1.25,1.25s-0.56,1.25-1.25,1.25S19.875,57.065,19.875,56.375z"/>
	<circle cx="48.812" cy="38.812" r="2.438"/>
	<circle cx="30.125" cy="85.375" r="1.25"/>
	<circle cx="75.125" cy="63.375" r="1.25"/>
	<path d="M48.688,31.625c-3.895,0-7.062,3.168-7.062,7.062s3.168,7.062,7.062,7.062s7.062-3.168,7.062-7.062   S52.582,31.625,48.688,31.625z M48.799,33.175c0.395,0,0.715,0.32,0.715,0.714c0,0.395-0.32,0.715-0.715,0.715   s-0.715-0.32-0.715-0.715C48.084,33.495,48.404,33.175,48.799,33.175z M43.883,39.52c-0.396,0-0.715-0.319-0.715-0.714   c0-0.395,0.319-0.714,0.715-0.714c0.395,0,0.713,0.319,0.713,0.714C44.596,39.201,44.277,39.52,43.883,39.52z M45.827,42.788   c-0.279,0.279-0.731,0.279-1.01,0s-0.278-0.731,0-1.01c0.278-0.279,0.73-0.279,1.01,0C46.106,42.057,46.106,42.509,45.827,42.788z    M45.827,35.834c-0.279,0.279-0.731,0.279-1.01,0c-0.278-0.279-0.278-0.731,0-1.01c0.278-0.279,0.73-0.279,1.01,0   C46.106,35.103,46.106,35.555,45.827,35.834z M48.799,44.437c-0.395,0-0.715-0.32-0.715-0.714c0-0.395,0.32-0.714,0.715-0.714   s0.715,0.319,0.715,0.714C49.514,44.117,49.193,44.437,48.799,44.437z M48.812,41.375c-1.415,0-2.562-1.147-2.562-2.562   s1.147-2.562,2.562-2.562s2.562,1.147,2.562,2.562S50.228,41.375,48.812,41.375z M52.781,42.788c-0.279,0.279-0.731,0.279-1.011,0   c-0.278-0.279-0.278-0.731,0-1.01c0.279-0.279,0.731-0.279,1.011,0C53.059,42.057,53.059,42.509,52.781,42.788z M52.781,35.834   c-0.279,0.279-0.731,0.279-1.011,0c-0.278-0.279-0.278-0.731,0-1.01c0.279-0.279,0.731-0.279,1.011,0   C53.059,35.103,53.059,35.555,52.781,35.834z M53.716,39.52c-0.395,0-0.714-0.319-0.714-0.714c0-0.395,0.319-0.714,0.714-0.714   s0.714,0.319,0.714,0.714C54.43,39.201,54.11,39.52,53.716,39.52z"/>
	<path d="M29,81.865C29,82.729,27.325,84,25.838,84h-0.494C23.855,84,22,82.729,22,81.865V64.562C22,63.698,23.855,63,25.344,63   h0.494C27.325,63,29,63.698,29,64.562V81.865z"/>
	<path d="M48.562,13.5C34.168,13.5,22.5,25.168,22.5,39.562c0,14.395,11.668,26.062,26.062,26.062c0.131,0,0.261-0.008,0.392-0.01   l-7.697-19.521l17.926,17.268c9.099-4.066,15.442-13.189,15.442-23.8C74.625,25.168,62.957,13.5,48.562,13.5z M48.688,46   c-4.032,0-7.312-3.28-7.312-7.312s3.28-7.312,7.312-7.312S56,34.655,56,38.688S52.72,46,48.688,46z"/>
	<path d="M51.717,65.428c1.62-0.195,3.194-0.534,4.709-1.013l-8.284-8.168L51.717,65.428z"/>
	<path d="M67.334,65.667l-2.645,3.346l-22.778-21.94l13.353,33.863l-4.596,5.814l18.457-0.083L75,81.084l0.001-15.334L67.334,65.667   z M56.728,78.982l-9.244-23.735L63.269,70.81l-6.515,8.241L56.728,78.982z M68,86H56v-3h12V86z M72.125,69.625   c-0.69,0-1.25-0.56-1.25-1.25s0.56-1.25,1.25-1.25s1.25,0.56,1.25,1.25S72.815,69.625,72.125,69.625z"/>
</g>
</svg>