<svg xmlns="http://www.w3.org/2000/svg" xmlns:xlink="http://www.w3.org/1999/xlink" version="1.1" x="0px" y="0px" width="100px" height="100px" viewBox="0 0 100 100" enable-background="new 0 0 100 100" xml:space="preserve">
<g id="Captions" display="none">
</g>
<g id="Your_Icon">
	<g>
		<path fill="#000000" d="M50.199,28.871c-1.273,0-2.559,0.145-3.815,0.429c-5.164,1.168-9.396,4.634-11.61,9.51    c-2.227,4.901-2.05,10.402,0.485,15.093c1.978,3.659,3.456,7.116,4.521,10.57c0.616,1.997,0.796,4.065,0.986,6.256l0.025,0.285    c0.22,2.536,1.937,4.113,4.477,4.113h1.529l8.266-0.002c2.581,0,4.242-1.496,4.556-4.104c0.05-0.411,0.096-0.822,0.142-1.236    c0.173-1.557,0.337-3.028,0.681-4.453c0.967-3.997,2.789-7.737,4.614-11.184c1.957-3.694,2.569-7.552,1.821-11.467    C65.349,34.679,58.335,28.871,50.199,28.871z M56.015,64.698c-0.277,1.158-0.404,2.322-0.526,3.45    c-0.052,0.479-0.104,0.959-0.169,1.437c-0.016,0.12-0.022,0.243-0.027,0.364c-0.003,0.038-0.003,0.074-0.008,0.111    c-0.032,0.31-0.065,0.51-0.092,0.64c-0.011,0-0.024,0-0.035,0H46.89l-1.614-0.003c-0.02,0-0.038,0-0.057,0    c0-0.002,0-0.003,0-0.004c-0.083-0.49-0.136-1.037-0.17-1.772c-0.137-2.874-0.851-5.779-2.246-9.146    c-1.198-2.891-2.39-5.474-3.641-7.896c-1.689-3.271-1.969-6.911-0.784-10.249c1.166-3.292,3.628-5.898,6.93-7.342    c1.531-0.669,3.154-1.008,4.825-1.008c5.99,0,11.314,4.358,12.386,10.14c0.578,3.129,0.008,6.212-1.749,9.422    C58.484,57.018,56.929,60.896,56.015,64.698z"/>
		<path fill="#000000" d="M57,77.238H43.415c-1.439,0-2.61,1.137-2.61,2.532s1.171,2.532,2.61,2.532H57    c1.438,0,2.61-1.137,2.61-2.532S58.438,77.238,57,77.238z"/>
		<path fill="#000000" d="M54.945,84.414h-9.484c-1.269,0-2.261,1.111-2.261,2.529c0,1.421,0.992,2.533,2.261,2.533h9.484    c1.27,0,2.262-1.112,2.262-2.533C57.207,85.525,56.215,84.414,54.945,84.414z"/>
		<path fill="#000000" d="M33.529,42.706c-0.748,3.915-0.134,7.774,1.822,11.468c1.824,3.445,3.647,7.186,4.614,11.183    c0.344,1.425,0.508,2.896,0.681,4.453c0.046,0.413,0.093,0.825,0.142,1.235c0.313,2.609,1.975,4.106,4.557,4.106l8.265,0.001    h1.528c2.542,0,4.258-1.577,4.479-4.112l0.024-0.286c0.19-2.189,0.37-4.259,0.986-6.256c1.063-3.453,2.543-6.911,4.521-10.571    c2.535-4.69,2.713-10.191,0.485-15.092c-2.215-4.875-6.446-8.342-11.61-9.509c-1.257-0.285-2.541-0.429-3.815-0.429    C42.072,28.896,35.059,34.704,33.529,42.706z M39.638,52.866c-1.757-3.21-2.329-6.293-1.75-9.422    c1.07-5.78,6.396-10.14,12.386-10.14c1.671,0,3.295,0.339,4.825,1.008c3.301,1.443,5.763,4.051,6.93,7.342    c1.185,3.338,0.906,6.979-0.783,10.25c-1.253,2.422-2.444,5.005-3.642,7.896c-1.396,3.366-2.108,6.271-2.246,9.146    c-0.034,0.736-0.086,1.283-0.171,1.772c0,0.001,0,0.003,0,0.003c-0.019,0.001-0.035,0.001-0.055,0.001l-1.615-0.027v0.03h-8.269    c-0.011,0.002-0.022,0-0.034,0c-0.026-0.13-0.059-0.33-0.092-0.64c-0.005-0.037-0.005-0.074-0.007-0.11    c-0.005-0.123-0.013-0.244-0.028-0.365c-0.064-0.479-0.117-0.957-0.169-1.438c-0.121-1.126-0.248-2.292-0.526-3.448    C43.479,60.92,41.923,57.041,39.638,52.866z"/>
		<path fill="#000000" d="M43.406,77.264h13.585c1.44,0,2.61,1.135,2.61,2.53c0,1.396-1.17,2.532-2.61,2.532H43.406    c-1.438,0-2.61-1.136-2.61-2.532C40.796,78.398,41.968,77.264,43.406,77.264z"/>
		<path fill="#000000" d="M45.465,84.438h9.485c1.268,0,2.262,1.11,2.262,2.529c0,1.421-0.994,2.532-2.262,2.532h-9.485    c-1.268,0-2.262-1.111-2.262-2.532C43.203,85.549,44.197,84.438,45.465,84.438z"/>
		<path fill="#000000" d="M31.639,29.938l-6.708-6.708c-0.897-0.897-0.812-2.385,0.191-3.388s2.49-1.088,3.388-0.19l6.708,6.707    c0.896,0.896,0.812,2.385-0.191,3.389C34.022,30.75,32.534,30.834,31.639,29.938z"/>
		<path fill="#000000" d="M26.357,46.243h-9.485c-1.269,0-2.261-1.111-2.261-2.531c0-1.418,0.992-2.531,2.261-2.531h9.485    c1.268,0,2.261,1.113,2.261,2.531C28.618,45.132,27.625,46.243,26.357,46.243z"/>
		<path fill="#000000" d="M47.668,21.247v-9.485c0-1.268,1.111-2.261,2.53-2.261c1.42,0,2.532,0.993,2.532,2.261v9.485    c0,1.268-1.112,2.261-2.532,2.261C48.779,23.508,47.668,22.514,47.668,21.247z"/>
		<path fill="#000000" d="M68.768,29.914l6.708-6.708c0.897-0.897,0.813-2.385-0.191-3.388c-1.003-1.003-2.491-1.089-3.389-0.192    l-6.706,6.708c-0.896,0.896-0.813,2.385,0.19,3.388C66.383,30.726,67.872,30.81,68.768,29.914z"/>
		<path fill="#000000" d="M74.049,46.219h9.485c1.27,0,2.262-1.111,2.262-2.531c0-1.419-0.992-2.531-2.262-2.531h-9.485    c-1.268,0-2.262,1.112-2.262,2.531C71.787,45.108,72.781,46.219,74.049,46.219z"/>
	</g>
</g>
</svg>