<svg xmlns="http://www.w3.org/2000/svg" xmlns:xlink="http://www.w3.org/1999/xlink" version="1.1" x="0px" y="0px" width="100px" height="100px" viewBox="0 0 100 100" enable-background="new 0 0 100 100" xml:space="preserve">
<g id="Captions">
</g>
<g id="Your_Icon">
	<g>
		<path fill="none" d="M63.381,58.431L47.646,74.165c0,0-4.352,4.353-10.155,4.353c-2.899,0-6.165-1.087-9.431-4.353    c-9.791-9.793,0-19.586,0-19.586l15.041-15.04L31.676,28.114l-15.039,15.04c-11.719,11.716-11.719,30.718,0,42.436    c5.859,5.858,13.538,8.79,21.218,8.79c7.679,0,15.359-2.932,21.218-8.79l15.734-15.733L63.381,58.431z"/>
		<path fill="none" d="M47.028,35.612l11.229-11.229L46.832,12.957L35.603,24.187L47.028,35.612z M47.349,18.136l1.532,1.532    l-1.778,7.63l0.02,0.019l4.704-4.703l1.443,1.443l-7.012,7.011l-1.54-1.541l1.776-7.611l-0.02-0.019L41.78,26.59l-1.443-1.443    L47.349,18.136z"/>
		<path fill="none" d="M67.309,54.504l11.425,11.425L89.27,55.396L77.843,43.969L67.309,54.504z M79.284,50.148    c0.426,0.072,0.838,0.222,1.239,0.453c0.397,0.229,0.755,0.499,1.069,0.813c0.366,0.367,0.678,0.76,0.933,1.178    c0.255,0.42,0.423,0.852,0.501,1.297s0.053,0.888-0.078,1.326s-0.399,0.86-0.805,1.266L80.65,54.99    c0.196-0.223,0.325-0.44,0.389-0.653c0.061-0.213,0.069-0.421,0.023-0.624c-0.046-0.204-0.133-0.4-0.26-0.595    c-0.13-0.192-0.287-0.383-0.477-0.573c-0.126-0.124-0.263-0.237-0.412-0.334c-0.151-0.099-0.311-0.166-0.476-0.201    c-0.167-0.035-0.334-0.036-0.497-0.006c-0.164,0.032-0.322,0.125-0.471,0.277c-0.139,0.135-0.224,0.273-0.255,0.412    c-0.034,0.135-0.009,0.316,0.072,0.543c0.083,0.227,0.223,0.512,0.423,0.854c0.199,0.344,0.463,0.791,0.79,1.342    c0.106,0.157,0.239,0.385,0.401,0.687c0.166,0.301,0.285,0.642,0.363,1.021c0.079,0.38,0.076,0.779-0.01,1.198    c-0.084,0.418-0.323,0.826-0.716,1.218c-0.32,0.321-0.68,0.556-1.08,0.706c-0.398,0.15-0.822,0.204-1.267,0.158    c-0.445-0.046-0.906-0.195-1.379-0.446c-0.475-0.253-0.951-0.617-1.429-1.095c-0.388-0.388-0.713-0.811-0.983-1.268    c-0.269-0.459-0.438-0.929-0.514-1.409c-0.077-0.482-0.038-0.961,0.111-1.438c0.151-0.477,0.446-0.93,0.885-1.355l1.491,1.492    c-0.236,0.235-0.391,0.479-0.472,0.727c-0.077,0.25-0.097,0.494-0.058,0.738c0.038,0.24,0.129,0.481,0.27,0.721    c0.142,0.238,0.312,0.459,0.515,0.661c0.139,0.139,0.297,0.275,0.478,0.409c0.18,0.134,0.371,0.237,0.575,0.31    c0.201,0.071,0.406,0.096,0.612,0.072c0.206-0.021,0.398-0.12,0.575-0.298c0.19-0.19,0.281-0.406,0.279-0.645    c-0.003-0.239-0.065-0.497-0.182-0.771s-0.272-0.566-0.461-0.873c-0.19-0.308-0.377-0.626-0.56-0.952    c-0.197-0.327-0.372-0.664-0.525-1.008c-0.154-0.344-0.255-0.69-0.299-1.035c-0.046-0.347-0.017-0.695,0.087-1.041    c0.106-0.348,0.318-0.68,0.639-1.002c0.359-0.36,0.75-0.596,1.168-0.707C78.438,50.096,78.859,50.076,79.284,50.148z"/>
		<path d="M93.196,51.468L81.77,40.041l-3.927-3.927l-3.927,3.927L43.72,70.238c-0.765,0.731-3.445,2.726-6.229,2.726    c-1.867,0-3.668-0.893-5.502-2.729c-2.555-2.552-3.271-4.952-2.33-7.779c0.762-2.285,2.314-3.934,2.331-3.949l30.194-30.195    l3.929-3.928l-3.929-3.928L50.759,9.03l-3.927-3.929L42.904,9.03L12.71,39.227C5.992,45.94,2.293,54.871,2.293,64.37    c0,9.501,3.699,18.432,10.417,25.146c6.716,6.717,15.646,10.416,25.145,10.416s18.43-3.699,25.146-10.416l30.195-30.193    l3.93-3.928L93.196,51.468z M59.072,85.59c-5.858,5.858-13.539,8.79-21.218,8.79c-7.68,0-15.358-2.932-21.218-8.79    c-11.719-11.718-11.719-30.72,0-42.436l15.039-15.04L43.102,39.54l-15.041,15.04c0,0-9.791,9.793,0,19.586    c3.266,3.266,6.531,4.353,9.431,4.353c5.804,0,10.155-4.353,10.155-4.353l15.734-15.734l11.426,11.426L59.072,85.59z"/>
		<polygon points="82.656,21 75.919,27.291 77.832,29.248 89.613,18 80.496,18 89.754,10 80.064,10 87.151,2.218 85.117,0.021     73.687,12 82.515,12 73.257,21   "/>
	</g>
</g>
</svg>