<svg xmlns="http://www.w3.org/2000/svg" xmlns:xlink="http://www.w3.org/1999/xlink" version="1.1" id="Layer_1" x="0px" y="0px" width="100px" height="100px" viewBox="0 0 100 100" enable-background="new 0 0 100 100" xml:space="preserve">
<path d="M51.36,20.746c0,2.123-0.073,2.831-0.543,3.393c-0.918,1.095-2.265-0.677-5.063-0.677c-3.097,0-5.608,2.51-5.608,5.607  c0,3.097,2.51,5.608,5.606,5.608c2.8,0,4.146-1.771,5.064-0.677c0.47,0.562,0.543,1.27,0.543,3.393v10.995v0.001v-0.001l9.358,0.001  c1.372,0,1.565-0.132,1.68-0.397c0.235-0.544-0.246-1.431-0.246-3.475c0-4.306,4.544-7.743,8.531-7.743  c3.983,0,8.524,3.263,8.524,7.743c0,2.043-0.482,2.93-0.247,3.475c0.115,0.263,0.31,0.397,1.682,0.397l9.357,0V9.75H51.36l0,0  V20.746z"/>
<path d="M20.996,48.39c2.122,0,2.83,0.073,3.393,0.543c1.095,0.918-0.677,2.265-0.677,5.063c0,3.097,2.51,5.608,5.607,5.608  c3.097,0,5.607-2.51,5.607-5.606c0-2.8-1.771-4.146-0.677-5.064c0.563-0.47,1.271-0.543,3.393-0.543h10.994h0.002h-0.002  l0.002-9.358c0-1.372-0.133-1.565-0.398-1.68c-0.544-0.235-1.431,0.246-3.475,0.246c-4.306,0-7.742-4.544-7.742-8.531  c0-3.983,3.262-8.524,7.742-8.524c2.043,0,2.93,0.482,3.475,0.247c0.263-0.115,0.397-0.31,0.397-1.682L48.637,9.75H10v38.64l0,0  H20.996z"/>
<path d="M48.64,79.004c0-2.121,0.073-2.83,0.543-3.393c0.918-1.094,2.264,0.678,5.063,0.678c3.096,0,5.607-2.51,5.607-5.607  s-2.51-5.607-5.605-5.607c-2.801,0-4.147,1.771-5.065,0.676c-0.47-0.563-0.543-1.27-0.543-3.393V51.363v-0.002v0.002l-9.358-0.002  c-1.372,0-1.565,0.133-1.68,0.398c-0.235,0.545,0.246,1.432,0.246,3.475c0,4.307-4.544,7.742-8.531,7.742  c-3.983,0-8.524-3.262-8.524-7.742c0-2.043,0.482-2.93,0.247-3.475c-0.115-0.262-0.31-0.396-1.682-0.396H10V90h38.64l0,0V79.004z"/>
<path d="M79.004,51.359c-2.122,0-2.83-0.072-3.393-0.543c-1.095-0.917,0.677-2.264,0.677-5.062c0-3.097-2.51-5.608-5.607-5.608  c-3.097,0-5.607,2.51-5.607,5.606c0,2.8,1.771,4.146,0.677,5.064c-0.563,0.471-1.271,0.543-3.393,0.543H51.363h-0.002h0.002  l-0.002,9.359c0,1.371,0.133,1.564,0.398,1.68c0.544,0.234,1.431-0.246,3.475-0.246c4.306,0,7.742,4.543,7.742,8.531  c0,3.983-3.262,8.524-7.742,8.524c-2.043,0-2.93-0.482-3.475-0.247c-0.263,0.115-0.397,0.31-0.397,1.682L51.363,90H90V51.359l0,0  H79.004z"/>
</svg>