<svg xmlns="http://www.w3.org/2000/svg" xmlns:xlink="http://www.w3.org/1999/xlink" version="1.1" width="100" height="100" viewBox="0 0 100 100">

<title>FAQ</title>
<script type="text/javascript">
var metadata = {
	"Designer": "Anas Ramadan",
	"Organization": "RichStyle.org",
	"Year": "2012",
	"Country": "Syria",
	"License": "CC-BY-3.0"
   }
</script>

<path d="m 97.627,80.445283 c -3.061,-2.112 -5.205,-5.248 -6.668,-8.203 4.944,-3.035 8.047,-7.409 8.047,-12.272 0,-8.125 -8.665,-14.883 -20.105,-16.312 0,0.058 0.003,0.116 0.003,0.173 0,11.305 -10.888,20.895 -25.979,24.268 4.22,5.052 12.248,8.467 21.462,8.467 2.849,0 5.585,-0.328 8.13,-0.928 5.452,4.078 23.995,10.94 15.11,4.807 z"/>
<path d="m 39.4375,17.112283 c -20.943,0 -37.90625,11.4445 -37.90625,25.5625 0,7.491 4.79025,14.23125 12.40625,18.90625 -2.253,4.551 -5.56625,9.37 -10.28125,12.625 -13.685,9.445 14.88225,-1.12425 23.28125,-7.40625 3.92,0.924 8.111,1.4375 12.5,1.4375 4.172,0 8.21375,-0.44225 11.96875,-1.28125 15.091,-3.373 25.96875,-12.97525 25.96875,-24.28125 l 0,-0.1875 c -0.14,-14.037 -17.0795,-25.375 -37.9375,-25.375 z m -0.21875,7.28125 c 0.972558,0.01027 1.949988,0.117409 2.90625,0.3125 3.829814,0.804716 8.368118,4.544857 8.375,9.96875 -0.0069,5.44454 -4.350818,7.508943 -5.90625,8.53125 -1.552784,1.014895 -2.107515,2.192837 -2.09375,3.4375 l 0,4.59375 -5.9375,0.03125 0,-6.84375 c 0.0048,-2.027143 0.658725,-3.433308 2.59375,-4.6875 l 3.34375,-2.25 c 2.133557,-1.454313 2.103737,-4.377719 0.78125,-5.6875 -1.172662,-1.130838 -3.114841,-1.786358 -5.21875,-1.375 -3.824519,0.786186 -4.136647,3.601334 -4.125,6.28125 l 0,1.1875 -5.9375,0 c 0.01059,-5.035829 0.57801,-7.314346 3.21875,-10.1875 2.202513,-2.427649 5.082325,-3.343322 8,-3.3125 z m -2.6875,29.1875 6,0 0,6.0625 -6,0 0,-6.0625 z"/>
</svg>