<svg xmlns:dc="http://purl.org/dc/elements/1.1/" xmlns:cc="http://creativecommons.org/ns#" xmlns:rdf="http://www.w3.org/1999/02/22-rdf-syntax-ns#" xmlns:svg="http://www.w3.org/2000/svg" xmlns="http://www.w3.org/2000/svg" xmlns:sodipodi="http://sodipodi.sourceforge.net/DTD/sodipodi-0.dtd" xmlns:inkscape="http://www.inkscape.org/namespaces/inkscape" width="100" height="100" viewBox="0 0 80 80" version="1.1" id="svg2" inkscape:version="0.48.2 r9819" sodipodi:docname="wagonwheel.svg">
  <metadata id="metadata10">
    <rdf:RDF>
      <cc:Work rdf:about="">
        <dc:format>image/svg+xml</dc:format>
        <dc:type rdf:resource="http://purl.org/dc/dcmitype/StillImage"/>
        <dc:title/>
      </cc:Work>
    </rdf:RDF>
  </metadata>
  <defs id="defs8"/>
  <sodipodi:namedview pagecolor="#ffffff" bordercolor="#666666" borderopacity="1" objecttolerance="10" gridtolerance="10" guidetolerance="10" inkscape:pageopacity="0" inkscape:pageshadow="2" inkscape:window-width="1268" inkscape:window-height="536" id="namedview6" showgrid="false" inkscape:zoom="3.47" inkscape:cx="5.0432277" inkscape:cy="50" inkscape:window-x="19" inkscape:window-y="30" inkscape:window-maximized="0" inkscape:current-layer="svg2"/>
  <path id="path2992" d="m 37.675298,0.77628751 c 4.97927,-0.22022996 10.00642,0.36386999 14.75588,1.88638009 2.16407,0.69901 4.27068,1.59911 6.23367,2.74817 1.31184,0.79477 2.62369,1.57997 3.89723,2.43219 3.00672,2.06831 5.65914,4.6345504 7.93811,7.4784804 2.29813,2.90138 4.26111,6.08046 5.74531,9.47019 1.19694,2.66199 2.16407,5.4389 2.60455,8.3307 0.18193,1.05331 0.21066,2.12577 0.29684,3.18865 0.1149,0.92883 0.1149,1.85765 0.17236,2.78648 0.0766,1.31185 -0.16279,2.61412 -0.18194,3.92596 0.0287,0.3543 0.0766,0.70859 0.0287,1.06289 -0.63199,5.92724 -2.72903,11.66298 -5.84107,16.73801 -1.57039,2.48006 -3.39931,4.79733 -5.45805,6.8848 -1.74274,1.78104 -3.65785,3.41846 -5.74531,4.77818 -1.35015,0.8618 -2.71945,1.66614 -4.17493,2.33643 -1.06288,0.45962 -2.06831,1.03416 -3.15034,1.45548 -1.27355,0.53623 -2.60455,0.9384 -3.92597,1.34057 -1.58953,0.4692 -3.22695,0.75647 -4.84521,1.08204 -0.54581,0.12448 -1.11076,0.17236 -1.66614,0.24896 -0.98628,0.15321 -1.99171,0.11491 -2.99714,0.15321 -0.92883,0.01 -1.84808,0.0287 -2.7769,0.01 -1.56081,-0.0862 -3.12162,-0.24896 -4.65371,-0.57453 -4.08874,-0.59368 -8.09131,-1.8385 -11.72043,-3.83021 -1.7619,-0.92882 -3.44719,-2.00128 -5.07503,-3.15034 -2.91096,-1.98214 -5.4389,-4.45262 -7.6891395,-7.14334 -1.07246,-1.35015 -2.1161897,-2.71945 -2.9971397,-4.19408 -0.67986,-1.06288 -1.13949,-2.24067 -1.71402,-3.36101 -0.84265,-1.68529 -1.52251,-3.45676 -2.11619,-5.24738 -1.73317,-5.30484 -2.1928,-11.01185 -1.46506,-16.54651 0.20109,-1.65656 0.41175,-3.3227 0.89053,-4.93139 0.64156,-2.45133 1.47463,-4.86436 2.65242,-7.12419 0.53623,-1.14906 1.10118,-2.28855 1.80977,-3.35143 0.53623,-0.91925 1.10119,-1.80977 1.7523197,-2.66199 0.78519,-1.13949 1.64699,-2.2311 2.5566695,-3.27483 0.63198,-0.67986 1.30227,-1.31185 1.9534,-1.97256 2.28855,-2.3364304 4.9314,-4.3281404 7.8232,-5.8602204 0.52666,-0.26811 1.03416,-0.56496 1.56081,-0.84265 4.67286,-2.7960501 10.1309,-3.9929901 15.52192,-4.27068009 m 1.05331,4.19408009 c -1.13949,0.10533 -2.29812,0.16278 -3.43761,0.27769 -2.25025,0.3543 -4.49092,0.8235 -6.62626,1.60869 -1.42676,0.4692 -2.79605,1.07246 -4.15578,1.69487 -0.38302,0.19151 -0.77562,0.37344 -1.10118,0.65113 0.41174,0.4692 0.66071,1.0533104 0.9767,1.5799604 0.96713,1.79062 1.84807,3.60997 2.86308,5.37187 2.56624,4.54837 5.05588,9.14462 7.67957,13.66427 0.99585,1.70444 1.9151,3.44719 2.89181,5.1612 0.067,0.0958 0.10533,0.21067 0.21066,0.26812 0.29684,-0.0575 0.56495,-0.18194 0.84264,-0.27769 0.0479,-1.35015 0.0287,-2.70987 0.067,-4.06002 0.11491,-5.60168 0.22024,-11.20336 0.28727,-16.80504 0.0958,-3.03544 0.0192,-6.0804604 0.20108,-9.1063204 -0.22981,-0.0191 -0.45962,-0.0479 -0.69901,-0.0287 m 2.41303,0 c 0.11491,1.03416 0.0287,2.06831 0.0287,3.10247 -0.0958,3.7344504 -0.13406,7.4689104 -0.21066,11.2033604 -0.067,5.19951 -0.22982,10.39902 -0.25854,15.59852 0.33514,0.0575 0.67028,0.13406 1.015,0.19151 2.67157,-4.62497 5.28569,-9.28825 8.15835,-13.79832 0.92882,-1.50336 1.82892,-3.02587 2.74817,-4.52922 1.05331,-1.69487 2.08747,-3.39931 3.14077,-5.09418 0.47878,-0.72774 0.85222,-1.52251 1.37888,-2.2215204 -2.7386,-1.70444 -5.84107,-2.70987 -8.96269,-3.49507 -1.42675,-0.30641 -2.86308,-0.52665 -4.30898,-0.74689 -0.9001,-0.12448 -1.80978,-0.23939 -2.72903,-0.21066 m -23.83347,8.6371204 c -2.51836,2.1928 -4.66328,4.79734 -6.4922,7.58381 -0.12449,0.17236 -0.22024,0.37345 -0.316,0.56496 6.7699,4.1462 13.53021,8.30198 20.38629,12.30454 1.63741,0.93841 3.2844,1.84808 4.92182,2.77691 0.24896,-0.18194 0.45005,-0.40218 0.65113,-0.62241 -2.18322,-4.04087 -4.47177,-8.02429 -6.71244,-12.02686 -1.84807,-3.39931 -3.83021,-6.73159 -5.64956,-10.15005 -0.70859,-1.2927 -1.47463,-2.56624 -2.18322,-3.86851 -1.62783,1.015 -3.16949,2.17364 -4.60582,3.43761 m 41.31837,-3.25568 c -0.21066,0.56496 -0.5841,1.03416 -0.9001,1.55124 -2.15449,3.34186 -4.25153,6.73159 -6.33899,10.1309 -1.98213,3.17907 -3.89724,6.39645 -5.75489,9.65213 -0.77562,1.41717 -1.61826,2.78647 -2.346,4.23238 0.26811,0.22023 0.53623,0.45005 0.78519,0.69901 0.29684,-0.12448 0.57453,-0.29684 0.85222,-0.4692 3.22695,-1.84808 6.44433,-3.70573 9.70001,-5.52508 3.72487,-2.06831 7.5072,-4.04087 11.25123,-6.08045 1.43633,-0.75647 2.84393,-1.57996 4.30899,-2.3077 -1.66614,-2.7386 -3.6004,-5.34315 -5.9847,-7.50721 -1.26397,-1.13949 -2.53752,-2.2694 -3.92597,-3.25568 -0.5458,-0.38302 -1.06288,-0.81392 -1.64699,-1.12034 M 9.5806285,23.298378 c -0.21066,0.37344 -0.40217,0.76604 -0.5841,1.14906 -0.64156,1.39803 -1.2927,2.79605 -1.7906297,4.26111 -0.68943,1.94383 -1.25439,3.94511 -1.57038,5.9847 -0.19151,1.23524 -0.40217,2.48006 -0.31599,3.73445 1.16821,0 2.32685,0.0958 3.4950597,0.14364 2.2598195,0.12448 4.5292195,0.16278 6.7986195,0.21066 3.43761,0.12448 6.8848,0.20108 10.33199,0.28726 2.74817,0.0766 5.48677,0.20109 8.23495,0.27769 0.14363,-0.0192 0.32557,0.0479 0.44047,-0.067 0.12448,-0.27769 0.17236,-0.57453 0.26812,-0.86179 -1.73317,-1.03416 -3.50464,-2.00129 -5.24739,-3.01629 -6.72202,-3.97384 -13.42488,-7.99556 -20.0607195,-12.10346 m 55.7869895,3.60997 c -3.40888,1.82892 -6.82735,3.61955 -10.19793,5.49635 -3.38973,1.8768 -6.74117,3.83021 -10.11175,5.74531 0.067,0.31599 0.18193,0.61284 0.25854,0.92883 0.88095,0.0383 1.77147,0.0192 2.65242,0.0287 2.42261,0.0575 4.85479,-0.0479 7.27739,-0.0383 2.36516,-0.0287 4.72074,0.0192 7.08589,0.0287 2.55667,0.0192 5.11333,0.10533 7.66042,0.27769 1.69487,0.0766 3.38016,0.27769 5.06545,0.41175 0.01,-2.17365 -0.0574,-4.35687 -0.52665,-6.49221 -0.40218,-1.82892 -0.91925,-3.64827 -1.57997,-5.41017 -0.55538,-1.38845 -1.16821,-2.76732 -1.89595,-4.08874 -1.88638,1.06288 -3.80148,2.05873 -5.68786,3.11204 m -25.88263,12.31412 c -0.55538,0.16278 -0.59369,0.90968 -0.36387,1.34057 0.28726,0.59369 1.14906,0.74689 1.65656,0.34472 0.26812,-0.21066 0.31599,-0.59368 0.24897,-0.90967 -0.13406,-0.65114 -0.94798,-1.01501 -1.54166,-0.77562 m -34.0601292,0.9384 c -0.0479,4.06002 0.73731,8.11047 2.19279,11.8928 0.5745297,1.43633 1.1682097,2.87266 1.9438297,4.21323 3.6195495,-2.05874 7.2678195,-4.05045 10.8873695,-6.09961 2.87266,-1.57996 5.72616,-3.18865 8.57009,-4.83564 1.93426,-1.08203 3.89724,-2.12576 5.85065,-3.18865 -0.0766,-0.32556 -0.16279,-0.65113 -0.26812,-0.9767 -4.28026,-0.19151 -8.57967,-0.31599 -12.8695,-0.40217 -2.55666,-0.0383 -5.10375,-0.16278 -7.66042,-0.21066 -2.88223,-0.0862 -5.7644595,-0.21066 -8.6466892,-0.3926 m 39.9586492,0.76604 c -0.067,0.34472 -0.22024,0.67987 -0.21066,1.03416 0.51707,0.4309 1.13948,0.71816 1.68529,1.11076 1.81935,1.12991 3.61955,2.27897 5.45805,3.36101 1.37887,0.78519 2.70987,1.62784 4.07917,2.43218 3.04501,1.77147 6.05173,3.6004 9.09674,5.36229 1.65657,0.97671 3.30356,1.96299 4.97927,2.89181 0.70859,-1.3693 1.331,-2.7769 1.97256,-4.17493 0.81392,-1.86722 1.41718,-3.82063 1.85765,-5.81234 0.38302,-1.84807 0.71817,-3.7153 0.65114,-5.61125 -2.01086,0 -4.00257,-0.26812 -6.01343,-0.3543 -2.25982,-0.18193 -4.52922,-0.20108 -6.79862,-0.22981 -3.09289,0 -6.19536,-0.0766 -9.28826,-0.0287 -2.48963,0.0575 -4.97927,0 -7.4689,0.0191 m -1.62784,3.08332 c -0.10533,0.11491 0,0.27769 0.0479,0.3926 1.42675,2.45133 2.83435,4.90267 4.21323,7.38273 0.88094,1.57996 1.71401,3.18864 2.58539,4.77818 1.82892,3.38016 3.7153,6.72202 5.69743,10.016 0.62241,1.02458 1.17779,2.08746 1.80978,3.11204 1.67571,-1.06288 3.35143,-2.13534 4.85479,-3.42804 1.07245,-0.90967 2.08746,-1.88637 3.01628,-2.93968 0.83307,-0.94798 1.7619,-1.80978 2.50879,-2.84393 0.4692,-0.66071 0.99586,-1.30227 1.34057,-2.03959 -0.16278,0.0479 -0.34471,0.23939 -0.51707,0.10533 -0.54581,-0.30641 -1.08204,-0.63198 -1.61827,-0.96712 -2.98756,-1.8002 -5.99427,-3.57167 -8.96269,-5.4006 -1.56081,-1.015 -3.21737,-1.8768 -4.78776,-2.88223 -1.75232,-1.04373 -3.52379,-2.06831 -5.26653,-3.15035 -1.44591,-0.90967 -2.90139,-1.80977 -4.35687,-2.71945 -0.20108,0.17236 -0.40217,0.36387 -0.56495,0.58411 m -14.80376,3.45676 c -3.12162,1.80978 -6.28154,3.55252 -9.43189,5.31442 -0.17236,0.0862 -0.31599,0.22981 -0.39259,0.41175 -0.25854,-0.0191 -0.5075,0.067 -0.71817,0.20108 -2.3077,1.30227 -4.62497,2.57582 -6.93267,3.87809 -0.316,0.20108 -0.75647,0.29684 -0.98628,0.59368 0.41174,0.70859 0.88095,1.37888 1.31184,2.06831 1.73317,2.47049 3.84936,4.65371 6.11876,6.62626 1.17779,0.96713 2.43218,1.84808 3.72488,2.63327 1.10119,-1.68529 2.12577,-3.43761 3.2078,-5.14205 1.13949,-1.77147 2.25025,-3.57167 3.35143,-5.37187 1.94383,-3.19822 3.88766,-6.39645 5.79319,-9.6234 0.90968,-1.51293 1.73317,-3.07374 2.6237,-4.60582 -0.25854,-0.25854 -0.54581,-0.48836 -0.81392,-0.7469 -2.31728,1.18737 -4.60583,2.45134 -6.85608,3.76318 m 12.15134,-2.03001 c -0.0862,2.25983 -0.0575,4.51965 -0.11491,6.77947 -0.0479,2.48964 -0.0287,4.97927 -0.13405,7.46891 -0.0479,2.2694 -0.0862,4.52922 -0.10533,6.79862 -0.0383,2.69072 0.0191,5.38144 -0.01,8.07217 1.70444,-0.0192 3.38973,-0.25854 5.07503,-0.45005 2.49921,-0.36387 4.96012,-0.99586 7.33485,-1.86723 1.17778,-0.45005 2.32685,-0.94798 3.42803,-1.57039 -1.15864,-1.9534 -2.3077,-3.91638 -3.45676,-5.87937 -1.96298,-3.42803 -3.84936,-6.89437 -5.71659,-10.37986 -1.67571,-3.15035 -3.51421,-6.21452 -5.28569,-9.30741 -0.34471,0.0862 -0.67986,0.21066 -1.015,0.33514 m -9.29783,10.73416 c -1.88638,3.15993 -3.83979,6.28155 -5.81234,9.39359 -0.95756,1.49378 -1.77147,3.08332 -2.91096,4.45262 2.24067,1.37887 4.692,2.346 7.18164,3.15034 0.96713,0.316 1.95341,0.48836 2.93011,0.73732 1.86723,0.37345 3.76318,0.67029 5.67828,0.65114 0.0575,-3.42804 0,-6.85608 0.0766,-10.28411 0.0958,-1.58954 0.067,-3.17908 0.14363,-4.76861 0.0383,-2.40346 0.10533,-4.79734 0.12448,-7.19122 0.0191,-2.2694 0.0862,-4.52922 0.067,-6.79862 -0.35429,-0.0958 -0.72774,-0.14363 -1.08203,-0.22981 -2.04916,3.677 -4.22281,7.27739 -6.39645,10.88736 z" inkscape:connector-curvature="0" style="fill:#000000;stroke:none;stroke-width:0.00897705000000000"/>
</svg>